<svg 
 xmlns="http://www.w3.org/2000/svg"
 xmlns:xlink="http://www.w3.org/1999/xlink"
 width="350px" height="41px">
<path fill-rule="evenodd"  fill="rgb(82, 63, 127)"
 d="M349.681,27.419 L325.674,27.419 C326.246,31.453 329.836,34.057 334.739,34.057 C337.859,34.057 340.184,32.459 341.179,31.603 L347.032,35.859 C344.063,39.194 339.751,40.983 334.525,40.983 C329.240,40.983 325.037,39.376 321.853,36.162 C318.669,32.948 317.077,28.898 317.077,24.012 C317.077,19.191 318.669,15.141 321.789,11.926 C324.909,8.648 328.985,7.041 333.889,7.041 C338.537,7.041 342.422,8.648 345.414,11.926 C348.471,15.205 350.000,19.191 350.000,24.012 C350.000,25.105 349.873,26.198 349.681,27.419 ZM333.889,13.738 C330.243,13.738 326.163,15.436 325.546,20.991 L341.785,20.991 C341.179,15.436 337.113,13.738 333.889,13.738 ZM284.595,29.929 L284.595,16.747 L279.054,16.747 L279.054,8.373 L284.595,8.373 L284.595,-0.001 L292.810,-0.001 L292.810,8.373 L300.005,8.373 L300.005,16.747 L292.810,16.747 L292.810,29.929 C292.810,33.400 295.293,33.465 300.005,33.207 L300.005,40.729 C288.734,42.015 284.595,38.736 284.595,29.929 ZM237.696,27.419 C238.268,31.453 241.857,34.057 246.761,34.057 C249.881,34.057 252.206,32.459 253.200,31.603 L259.054,35.859 C256.085,39.194 251.773,40.983 246.547,40.983 C241.261,40.983 237.058,39.376 233.875,36.162 C230.691,32.948 229.099,28.898 229.099,24.012 C229.099,19.191 230.691,15.141 233.811,11.926 C236.931,8.648 241.007,7.041 245.910,7.041 C250.559,7.041 254.444,8.648 257.436,11.926 C260.493,15.205 262.022,19.191 262.022,24.012 C262.022,25.105 261.894,26.198 261.703,27.419 L237.696,27.419 ZM245.910,13.738 C242.265,13.738 238.185,15.436 237.568,20.991 L253.807,20.991 C253.200,15.436 249.135,13.738 245.910,13.738 ZM206.519,18.524 C204.545,19.874 203.590,22.060 203.590,25.146 L203.590,40.510 L195.375,40.510 L195.375,8.367 L203.590,8.367 L203.590,11.978 C205.293,8.361 209.851,7.526 213.269,7.526 L213.269,16.817 C210.786,16.495 208.493,17.174 206.519,18.524 ZM162.683,32.594 C165.994,32.594 168.561,31.024 170.081,28.509 L177.274,32.717 C174.473,37.796 168.999,40.980 162.822,40.980 C157.875,40.980 153.947,39.386 150.699,36.107 C147.515,32.828 145.860,29.143 145.860,24.009 C145.860,19.023 147.602,15.202 150.786,11.923 C154.034,8.645 158.046,7.074 162.822,7.038 C169.116,6.990 174.388,10.550 177.203,15.267 L170.049,19.500 C168.462,16.936 165.930,15.424 162.683,15.424 C157.779,15.424 154.225,19.010 154.225,24.009 C154.225,26.516 155.014,28.616 156.661,30.233 C158.226,31.769 160.199,32.594 162.683,32.594 ZM120.614,21.809 C120.614,17.502 118.131,15.188 114.310,15.188 C110.043,15.188 107.305,17.823 107.305,23.159 L107.305,40.516 L99.090,40.516 L99.090,8.373 L107.305,8.373 L107.305,11.973 C109.279,8.952 112.463,7.473 116.794,7.473 C120.296,7.473 123.162,8.630 125.391,11.009 C127.683,13.388 128.829,16.602 128.829,20.780 L128.829,40.516 L120.614,40.516 L120.614,21.809 ZM65.185,40.993 C60.473,40.993 56.461,39.386 53.213,36.107 C49.965,32.828 48.373,28.779 48.373,24.022 C48.373,19.265 49.965,15.279 53.213,12.000 C56.461,8.722 60.473,7.050 65.185,7.050 C69.898,7.050 73.909,8.722 77.157,12.000 C80.405,15.279 82.061,19.265 82.061,24.022 C82.061,28.779 80.405,32.828 77.157,36.107 C73.909,39.386 69.898,40.993 65.185,40.993 ZM71.274,17.862 C69.642,16.245 67.633,15.436 65.185,15.436 C62.738,15.436 60.729,16.245 59.097,17.862 C57.528,19.480 56.712,21.533 56.712,24.022 C56.712,26.510 57.528,28.563 59.097,30.181 C60.729,31.798 62.738,32.607 65.185,32.607 C67.633,32.607 69.642,31.798 71.274,30.181 C72.905,28.563 73.721,26.510 73.721,24.022 C73.721,21.533 72.905,19.480 71.274,17.862 ZM16.823,32.594 C20.135,32.594 22.702,31.024 24.222,28.509 L31.415,32.717 C28.613,37.796 23.139,40.980 16.962,40.980 C12.016,40.980 8.088,39.386 4.840,36.107 C1.656,32.828 0.000,29.143 0.000,24.009 C0.000,19.023 1.743,15.202 4.926,11.923 C8.174,8.645 12.186,7.074 16.962,7.038 C23.257,6.990 28.528,10.550 31.343,15.267 L24.190,19.500 C22.602,16.936 20.071,15.424 16.823,15.424 C11.920,15.424 8.365,19.010 8.365,24.009 C8.365,26.516 9.155,28.616 10.801,30.233 C12.366,31.769 14.340,32.594 16.823,32.594 Z"/>
</svg>